# xmcd CD database file
#
# Track frame offsets:
#	150
#	12415
#	24327
#	43957
#	55089
#	69263
#	85289
#	100223
#	114365
#	124977
#
# Disc length: 1921 seconds
#
# Revision: 18
# Processed by: cddbd v1.4PL0 Copyright (c) Steve Scherf et al.
# Submitted via: CDex 1.40Beta6
#
DISCID=7e077f0a
DTITLE=Big Bibls Brothers Band - Butnflasa
DYEAR=1900
DGENRE=Blues
TTITLE0=Big Bibls Brothers Band
TTITLE1=Boogie Ob Polnoci
TTITLE2=Butnflasa
TTITLE3=Ne Me Maltretirat
TTITLE4=Bambus Bar
TTITLE5=Drgacn Rock'n'roll
TTITLE6=Banana Blues
TTITLE7=Crne Gate
TTITLE8=Baraba
TTITLE9=Kje Je Moj Prav
EXTD=
EXTT0=
EXTT1=
EXTT2=
EXTT3=
EXTT4=
EXTT5=
EXTT6=
EXTT7=
EXTT8=
EXTT9=
PLAYORDER=
